<?xml version="1.0" encoding="UTF-8"?>
<svg xmlns="http://www.w3.org/2000/svg" viewBox="0 0 1200 630" role="img" aria-labelledby="title description">
  <title id="title">Guy Romelle Magayano portfolio preview</title>
  <desc id="description">Social preview image for Guy Romelle Magayano's product engineering portfolio.</desc>
  <rect width="1200" height="630" fill="#18181b"/>
  <rect x="64" y="64" width="1072" height="502" rx="36" fill="#fafaf9"/>
  <svg x="160" y="152.444" width="880" height="325.111" viewBox="0 0 2160 798" aria-hidden="true">
      <path d="M0 0 C2.3515625 1.8984375 2.3515625 1.8984375 4.625 4.375 C7.04659411 6.97842029 9.02940759 9.01960506 12 11 C12.61978149 13.66778564 12.61978149 13.66778564 12.96728516 17.09863281 C13.10397614 18.38046448 13.24066711 19.66229614 13.38150024 20.98297119 C13.51758595 22.38966674 13.65343414 23.79638528 13.7890625 25.203125 C13.93806756 26.64333904 14.0883439 28.08342208 14.23983765 29.52337646 C14.6361418 33.3208048 15.01621289 37.11968479 15.39263916 40.91912842 C15.85117618 45.51883168 16.32786005 50.11668098 16.80261803 54.71473312 C17.17218784 58.29642477 17.538835 61.87833006 17.89639282 65.46124268 C18.02677948 66.75568298 18.15716614 68.05012329 18.29150391 69.38378906 C18.40458893 70.519151 18.51767395 71.65451294 18.63418579 72.82427979 C18.9891807 75.90607509 19.46179795 78.94537087 20 82 C20.63164063 81.40574219 21.26328125 80.81148438 21.9140625 80.19921875 C57.02955103 47.66426324 101.6483388 18.69573605 148 5.6875 C148.8038916 5.45724121 149.6077832 5.22698242 150.43603516 4.98974609 C165.69177459 0.93087964 181.18783518 -0.50765724 196.92724609 -0.39111328 C199.50021307 -0.37499867 202.07161034 -0.39110481 204.64453125 -0.41015625 C220.21124501 -0.43075203 235.78550806 1.21862175 250.75 5.6875 C252.04756226 6.06986816 252.04756226 6.06986816 253.37133789 6.45996094 C282.24745976 15.37277149 304.31817133 35.70875668 318.48608398 62.05102539 C322.43153785 69.55767446 325.97878995 77.07077867 329 85 C333.11298379 81.52681369 337.11541824 77.97347672 341.0625 74.3125 C347.4332877 68.50665254 354.14589936 63.22032793 361 58 C361.5770166 57.55543457 362.1540332 57.11086914 362.74853516 56.65283203 C377.75672548 45.12394713 393.83128093 35.02263705 410.96484375 26.96679688 C413.13563239 25.93556811 415.28647306 24.8686734 417.4375 23.796875 C433.10431629 16.06492091 449.19097033 10.01741844 466.125 5.6875 C467.01662842 5.45716064 467.90825684 5.22682129 468.8269043 4.98950195 C484.68151864 1.14471917 500.4364417 -0.50561706 516.72680664 -0.39111328 C519.43361917 -0.37502307 522.13893495 -0.39108589 524.84570312 -0.41015625 C560.66784139 -0.45362187 599.79500854 7.99973503 626 34 C626.86625 34.825 627.7325 35.65 628.625 36.5 C629.40875 37.325 630.1925 38.15 631 39 C631.59167969 39.6084375 632.18335938 40.216875 632.79296875 40.84375 C663.15644069 73.26277614 665.31422929 120.85446218 665.28735614 162.71872985 C665.28693168 166.84474746 665.29808096 170.97073683 665.30781555 175.09674072 C665.32317808 182.22604074 665.33165975 189.35532119 665.33552551 196.48463631 C665.34130556 206.80297446 665.35994255 217.12126028 665.38196605 227.43957513 C665.41757941 244.19986117 665.44594069 260.96015018 665.46826172 277.72045898 C665.46959671 278.72090976 665.4709317 279.72136053 665.47230715 280.752128 C665.48308832 288.87321082 665.49351349 296.9942941 665.5039072 305.11537743 C665.5130219 312.22787879 665.52227325 319.34037995 665.53173828 326.45288086 C665.53373439 327.95579944 665.53373439 327.95579944 665.53577083 329.48908002 C665.55820959 346.20262851 665.58840163 362.91615438 665.62413073 379.62967962 C665.64575919 389.92242636 665.66040609 400.21513792 665.66596949 410.50790613 C665.67022059 417.5543869 665.68146864 424.60083406 665.69819343 431.6472962 C665.70758257 435.7093437 665.71371847 439.77132838 665.71113014 443.83338737 C665.70880914 447.55563945 665.71569302 451.27775979 665.72970897 454.99998515 C665.7347786 456.97501117 665.73009093 458.95005491 665.72498846 460.92508084 C665.79675462 474.61784083 668.07859496 487.8197757 678 498 C687.72715694 505.87082928 701.19199207 508.38006354 713.05859375 511.421875 C715 512 715 512 716 513 C716 520.26 716 527.52 716 535 C635.48 535 554.96 535 472 535 C472 527.41 472 519.82 472 512 C473.61648438 511.56429688 475.23296875 511.12859375 476.8984375 510.6796875 C479.0575082 510.07890261 481.2163504 509.47729614 483.375 508.875 C484.43589844 508.59140625 485.49679687 508.3078125 486.58984375 508.015625 C497.99660459 504.79653912 507.10208145 499.85188829 514 490 C520.0391141 479.0541057 520.29819002 466.40851516 520.25396729 454.20814514 C520.25627715 452.85569401 520.25945717 451.50324413 520.26342177 450.15079683 C520.27170726 446.46729934 520.26767311 442.78390659 520.26144934 439.10040891 C520.25689966 435.11448892 520.26392129 431.12858617 520.26940918 427.14266968 C520.27828029 419.34470211 520.27639072 411.54677315 520.2705839 403.7488041 C520.2660555 397.4029668 520.2654596 391.05714026 520.26763153 384.7113018 C520.267938 383.80589702 520.26824446 382.90049223 520.26856022 381.96765093 C520.26919972 380.12785669 520.26984815 378.28806246 520.2705054 376.44826823 C520.27620277 359.21218057 520.26966163 341.97611421 520.25890467 324.74003004 C520.24998334 309.98968055 520.25151064 295.23936258 520.26074219 280.48901367 C520.27147889 263.32588938 520.2756392 246.1627838 520.26951766 228.99965662 C520.26888063 227.16411778 520.26825189 225.32857893 520.26763153 223.49304008 C520.26732298 222.59014261 520.26701443 221.68724514 520.26669653 220.75698714 C520.26497874 214.43232238 520.26786509 208.10766958 520.27259064 201.78300667 C520.27823798 194.05515916 520.27660349 186.3273522 520.26602915 178.59950925 C520.26082164 174.66575901 520.25862993 170.73207603 520.26532745 166.79832649 C521.49268218 122.68312266 521.49268218 122.68312266 502.9375 84.0625 C488.54541086 70.89631283 466.71779967 67.26517107 447.78125 67.81640625 C446.8634375 67.87699219 445.945625 67.93757813 445 68 C444.03320312 68.0616333 444.03320312 68.0616333 443.046875 68.12451172 C405.31200475 70.74220108 373.02942509 88.71179207 343.98339844 112.00390625 C340.20645999 115 340.20645999 115 338 115 C338.27263672 116.10214844 338.27263672 116.10214844 338.55078125 117.2265625 C343.83403343 140.7979953 344.4571721 165.09595153 344.40342176 189.14689684 C344.39856566 192.85221541 344.41134636 196.55748552 344.42178345 200.26278687 C344.43756492 206.64651965 344.44305373 213.03018937 344.44125557 219.41394043 C344.43884412 228.65836523 344.45502174 237.90269128 344.47570812 247.14708996 C344.50903172 262.17520115 344.5308269 277.20330338 344.54370117 292.23144531 C344.54447066 293.12593604 344.54524015 294.02042677 344.54603296 294.94202328 C344.54913566 298.56695412 344.55221846 302.19188497 344.555273 305.81681585 C344.56382889 315.82937683 344.57472755 325.84193472 344.58666992 335.85449219 C344.58773794 336.75271549 344.58880596 337.65093878 344.58990634 338.57638097 C344.60802601 353.57719701 344.63402178 368.57799168 344.66480106 383.57878685 C344.68327596 392.79819402 344.69426588 402.01755316 344.69532298 411.23697913 C344.69643016 417.54611267 344.70441691 423.85521318 344.71770663 430.16433275 C344.72508648 433.7955755 344.72925271 437.42674594 344.72458839 441.05799484 C344.71956597 445.00583027 344.73001545 448.9535442 344.74171448 452.90136719 C344.73574284 454.5954474 344.73574284 454.5954474 344.72965056 456.32375145 C344.78922571 467.73180446 345.93403378 479.26661997 350 490 C350.24105469 490.64582031 350.48210938 491.29164063 350.73046875 491.95703125 C353.71488073 498.38822891 359.66303707 501.31656679 366.04541016 503.79394531 C374.90371251 507.0105495 383.902359 509.51882518 393 512 C393 519.59 393 527.18 393 535 C312.15 535 231.3 535 148 535 C148 527.41 148 519.82 148 512 C149.64226562 511.57589844 151.28453125 511.15179688 152.9765625 510.71484375 C175.87961314 505.66264129 175.87961314 505.66264129 193 491 C198.9931056 480.42156528 199.29635014 468.95901517 199.26069641 457.06938171 C199.26372292 455.68963233 199.26761489 454.30988463 199.27228898 452.93013984 C199.28251454 449.16650805 199.28040109 445.4029721 199.27610838 441.63933265 C199.27363101 437.56884557 199.28266817 433.49838095 199.29014587 429.42790222 C199.30286978 421.46169011 199.30468921 413.49551174 199.30234561 405.52929118 C199.30055864 399.04613815 199.30232022 392.56299533 199.30657005 386.07984352 C199.30746284 384.6928249 199.30746284 384.6928249 199.30837366 383.27778569 C199.3095855 381.39885665 199.31079963 379.51992762 199.31201603 377.64099858 C199.32288403 360.03243384 199.3207334 342.42388826 199.31463119 324.81532244 C199.30947046 308.74860863 199.32069646 292.68195561 199.33972941 276.61525383 C199.35916248 260.0827122 199.36735376 243.55019924 199.36360615 227.01764613 C199.36170139 217.75030157 199.36410994 208.48300863 199.37832069 199.21567345 C199.39030587 191.32020004 199.3915607 183.42480998 199.37953053 175.52933528 C199.37368961 171.51037539 199.37240713 167.49156738 199.38453293 163.4726181 C199.87486797 123.89673592 199.87486797 123.89673592 185 88 C184.401875 87.0925 183.80375 86.185 183.1875 85.25 C170.71274373 72.41882212 152.17838913 68.77314832 135 68 C134.21753906 67.95875 133.43507813 67.9175 132.62890625 67.875 C98.91612444 66.96538025 65.91724252 82.45748135 39.40688515 102.27958393 C37.58777107 103.57986745 35.70666826 104.79400629 33.80107689 105.96389294 C28.98522914 109.06030684 24.81675578 111.7668008 22.79846573 117.2852726 C22.35502186 121.18086619 22.31129565 124.96944692 22.41650391 128.87817383 C22.40867521 130.37289437 22.39513957 131.86759395 22.37643051 133.3622179 C22.34168725 137.44928272 22.38755727 141.53199843 22.44716978 145.61862803 C22.49729955 150.03319276 22.47203298 154.44742058 22.45620728 158.8621521 C22.43696437 167.50226393 22.48650753 176.14067474 22.5588218 184.78045154 C22.64016216 194.84646557 22.65028687 204.91217539 22.65682125 214.97846997 C22.67063173 232.94207266 22.74463673 250.90491269 22.85449219 268.86816406 C22.96094358 286.28941361 23.03178319 303.71027844 23.05957031 321.13183594 C23.06128951 322.20484707 23.0630087 323.2778582 23.06478 324.38338482 C23.07161218 328.69675553 23.07837372 333.01012633 23.08499849 337.32349735 C23.11304696 354.94244245 23.16932598 372.56131261 23.22985077 390.18017197 C23.24355686 394.19246033 23.25611954 398.20474981 23.26770782 402.21704483 C23.29861303 412.76266841 23.33862724 423.30812076 23.4058243 433.85358262 C23.43353219 438.21327492 23.45684706 442.57285805 23.4674263 446.93262863 C23.47735869 450.92735623 23.50122826 454.92175441 23.53606868 458.91634023 C23.5463216 460.35763602 23.55168381 461.79897711 23.55152631 463.24030936 C23.55530458 475.6269463 25.33284638 485.97372219 33 496 C40.65218042 503.5230297 50.95856725 506.49270408 61.0625 509.25 C64.341875 510.1575 67.62125 511.065 71 512 C71 519.59 71 527.18 71 535 C-10.84 535 -92.68 535 -177 535 C-177 527.41 -177 519.82 -177 512 C-175.28554687 511.57589844 -173.57109375 511.15179688 -171.8046875 510.71484375 C-149.69563975 506.08320806 -149.69563975 506.08320806 -132.1015625 492.99609375 C-125.61731449 481.24626846 -124.69402746 468.13296854 -124.75276184 454.97897339 C-124.75034743 453.72272474 -124.74793301 452.4664761 -124.74544543 451.17215931 C-124.73909031 447.71898068 -124.74505466 444.26592104 -124.75320971 440.81275034 C-124.75983426 437.07403117 -124.7548275 433.33532429 -124.75132751 429.59660339 C-124.74630108 422.27954868 -124.75191029 414.9625394 -124.76117782 407.64549033 C-124.77161695 399.09131341 -124.77149004 390.53714603 -124.77100524 381.98296393 C-124.77050506 366.68492219 -124.77964783 351.38690137 -124.79418945 336.08886719 C-124.80822138 321.31900653 -124.81536246 306.5491643 -124.81469727 291.77929688 C-124.81465731 290.87271764 -124.81461735 289.96613841 -124.81457619 289.03208707 C-124.81453583 288.12692952 -124.81449548 287.22177197 -124.8144539 286.2891854 C-124.81375867 269.39526288 -124.8196917 252.50134804 -124.82860712 235.60742804 C-124.83159132 229.6796087 -124.83268287 223.7517908 -124.83313942 217.82397079 C-124.83383145 210.5580022 -124.83842859 203.29204653 -124.84747223 196.02608339 C-124.85200032 192.33579794 -124.85517046 188.64552866 -124.85387802 184.95524025 C-124.8500642 170.28925022 -124.95504512 155.62809091 -125.3281553 140.96660019 C-125.36473708 139.50771537 -125.39875795 138.04876351 -125.42990533 136.58975254 C-125.65383504 114.84087233 -125.65383504 114.84087233 -136.0625 96.625 C-143.73966045 89.69934661 -155.42277761 87.99239671 -165.1875 85.75 C-166.33025391 85.481875 -167.47300781 85.21375 -168.65039062 84.9375 C-171.43220129 84.28569499 -174.21590761 83.64198902 -177 83 C-177 76.07 -177 69.14 -177 62 C-158.25687802 55.0510194 -139.4523479 48.27959647 -120.625 41.5625 C-119.43763245 41.13885162 -118.25026489 40.71520325 -117.0269165 40.27871704 C-107.72356456 36.95986192 -98.41919538 33.64386223 -89.11471558 30.32817078 C-81.06750886 27.46047945 -73.02066078 24.59178665 -64.97445679 21.72128296 C-62.58530106 20.86916621 -60.19599971 20.01745764 -57.80654907 19.16616821 C-41.37311603 13.31115846 -41.37311603 13.31115846 -24.99609375 7.30078125 C-23.90654388 6.89592751 -23.90654388 6.89592751 -22.79498291 6.4828949 C-19.60971664 5.29784947 -16.42883988 4.10364701 -13.25341797 2.89233398 C-12.20686035 2.49989502 -11.16030273 2.10745605 -10.08203125 1.703125 C-9.20780518 1.36958008 -8.3335791 1.03603516 -7.43286133 0.69238281 C-4.79391494 -0.058651 -2.7292471 -0.26374236 0 0 Z " fill="#000000" transform="translate(1248,0)"/>
      <path d="M0 0 C5.96371463 1.7913836 10.62442538 5.25567687 14.73492432 9.82151794 C16.3298327 14.67894481 16.14760545 19.19256469 15.90679932 24.26292419 C15.89471436 25.47266907 15.88262939 26.68241394 15.87017822 27.92881775 C15.807747 32.4152882 15.64020403 36.89980085 15.48492432 41.38401794 C15.23742432 51.42839294 14.98992432 61.47276794 14.73492432 71.82151794 C-41.69507568 72.31651794 -41.69507568 72.31651794 -99.26507568 72.82151794 C-95.96507568 77.77151794 -92.66507568 82.72151794 -89.26507568 87.82151794 C-80.22923824 103.46565441 -73.73450261 120.04873602 -70.26507568 137.82151794 C-70.04077881 138.96088806 -70.04077881 138.96088806 -69.81195068 140.12327576 C-61.62218624 183.94910574 -68.09643714 232.85411273 -93.48773193 270.20433044 C-95.66060769 273.16196533 -97.91561227 276.00216185 -100.26507568 278.82151794 C-100.74267334 279.39772888 -101.220271 279.97393982 -101.71234131 280.56761169 C-110.47181254 291.0967855 -119.43933706 300.36434504 -130.26507568 308.82151794 C-131.23573975 309.59366638 -132.20640381 310.36581482 -133.20648193 311.16136169 C-171.07731385 339.83167248 -221.52965698 350.82503313 -268.26507568 351.02464294 C-269.37125748 351.03170258 -270.47743927 351.03876221 -271.61714172 351.04603577 C-318.11241386 351.27544887 -318.11241386 351.27544887 -338.26507568 347.82151794 C-339.40412354 347.63347595 -340.54317139 347.44543396 -341.71673584 347.25169373 C-363.18120184 343.59129028 -384.28737946 337.54353365 -404.26507568 328.82151794 C-404.36491196 334.8497093 -404.43699613 340.87740582 -404.48480225 346.90623474 C-404.50475828 348.95156756 -404.53193306 350.99684452 -404.5668335 353.04197693 C-405.11633588 373.8646165 -405.11633588 373.8646165 -396.01116943 392.11448669 C-385.41536663 402.47324693 -370.75585863 404.5480494 -356.73602295 407.07029724 C-355.10271567 407.37079841 -353.46955098 407.67207544 -351.83651733 407.97406006 C-348.33620292 408.619641 -344.83495572 409.25978992 -341.33285713 409.89562035 C-335.74369913 410.91041592 -330.15686042 411.93760838 -324.57023621 412.96624756 C-315.67937877 414.6017858 -306.78704299 416.2291221 -297.89404196 417.85296041 C-280.23525881 421.07758211 -262.57909305 424.31651433 -244.92393184 427.56090379 C-243.02864814 427.909184 -241.13335092 428.25739065 -239.23804021 428.60552382 C-217.21308581 432.65150429 -195.19140851 436.70260704 -173.23382568 441.10276794 C-172.37541643 441.27426046 -171.51700718 441.44575298 -170.63258553 441.62244225 C-112.29960688 453.32339137 -44.71394347 470.03386301 -9.23773193 521.77854919 C8.61742335 550.33898357 10.30063074 589.27791342 3.21124268 621.3813324 C-4.42309601 653.15543139 -21.54734391 680.6265229 -44.26507568 703.82151794 C-45.49097412 705.12282654 -45.49097412 705.12282654 -46.74163818 706.45042419 C-93.47537376 755.08699917 -167.33820063 775.81121584 -232.26507568 782.82151794 C-233.61714111 782.97016296 -233.61714111 782.97016296 -234.996521 783.12181091 C-311.99708474 791.24371314 -419.49638986 791.95016188 -482.77288818 740.96214294 C-483.59531006 740.25573669 -484.41773193 739.54933044 -485.26507568 738.82151794 C-486.12874756 738.09448669 -486.99241943 737.36745544 -487.88226318 736.61839294 C-508.36772362 718.81036351 -521.44578835 695.27340591 -523.88348389 668.1091156 C-525.44418546 645.5540728 -520.16815128 623.97643817 -510.26507568 603.82151794 C-509.92991943 603.12816345 -509.59476318 602.43480896 -509.24945068 601.72044373 C-503.97008372 590.90315871 -497.74095249 581.2439338 -490.26507568 571.82151794 C-489.84564697 571.28639587 -489.42621826 570.7512738 -488.99407959 570.19993591 C-472.62923761 549.4943212 -453.03136534 533.43602672 -431.26507568 518.82151794 C-433.96924542 517.01873812 -436.69326318 515.58330153 -439.60760498 514.15843201 C-461.09136189 503.65314777 -482.18702202 489.73346537 -490.41107178 466.01512146 C-497.25918133 445.40306424 -496.21886848 423.58693303 -486.76507568 404.00901794 C-479.34207503 389.50228275 -469.5403404 376.40586969 -459.26507568 363.82151794 C-458.20105435 362.5118002 -457.1372601 361.20189794 -456.07366943 359.89183044 C-454.41912837 357.85547221 -452.76371713 355.81985178 -451.10565186 353.78636169 C-446.66851287 348.33985425 -442.30898401 342.8367997 -437.98773193 337.29808044 C-436.05416299 334.82067308 -434.10076597 332.36032713 -432.13616943 329.90745544 C-431.62457275 329.26566345 -431.11297607 328.62387146 -430.58587646 327.96263123 C-429.59974245 326.72621263 -428.60997524 325.49268078 -427.6161499 324.26243591 C-425.07674624 321.39464601 -425.07674624 321.39464601 -424.26507568 317.82151794 C-426.30605397 316.34350683 -426.30605397 316.34350683 -428.95257568 314.82151794 C-454.3070715 298.98302247 -474.08221753 277.1336888 -486.26507568 249.82151794 C-486.807771 248.63429138 -487.35046631 247.44706482 -487.90960693 246.22386169 C-505.96128898 204.22513815 -504.83357441 151.09975608 -488.26507568 108.82151794 C-483.73878993 97.78001312 -478.17843328 87.54351493 -471.26507568 77.82151794 C-470.87013916 77.26432068 -470.47520264 76.70712341 -470.06829834 76.13304138 C-458.68422584 60.33826666 -444.59972511 46.42897766 -428.26507568 35.82151794 C-427.62698975 35.40353943 -426.98890381 34.98556091 -426.33148193 34.55491638 C-385.33547508 8.11046246 -335.39607768 0.1754725 -287.41326904 0.43040466 C-283.83158229 0.44649994 -280.25102592 0.43042474 -276.66937256 0.41136169 C-255.31036934 0.39123918 -233.81276769 1.8703512 -212.89007568 6.38401794 C-211.72000977 6.63232361 -210.54994385 6.88062927 -209.34442139 7.13645935 C-189.58388623 11.5527638 -169.95655472 17.88640164 -152.26507568 27.82151794 C-150.88062256 28.51761169 -150.88062256 28.51761169 -149.46820068 29.22776794 C-140.06923074 34.01067573 -129.760312 40.32628163 -122.26507568 47.82151794 C-114.78097895 48.09481097 -107.05442113 45.83445217 -99.82757568 44.13401794 C-98.6888501 43.86782654 -97.55012451 43.60163513 -96.37689209 43.32737732 C-86.50051476 40.96825951 -76.85393527 38.15398895 -67.26507568 34.82151794 C-66.58864014 34.58997009 -65.91220459 34.35842224 -65.215271 34.11985779 C-43.45552123 26.59986633 -22.46153117 16.13312571 -4.74554443 1.30589294 C-2.26507568 -0.17848206 -2.26507568 -0.17848206 0 0 Z M-341.75726318 56.66526794 C-366.67821214 87.87938583 -367.67690727 135.07829233 -367.52581787 173.12376404 C-367.51507613 176.32138506 -367.52581459 179.51844464 -367.53851318 182.71604919 C-367.55192455 201.7054523 -366.65897685 220.81548006 -363.51507568 239.57151794 C-363.34733643 240.58826599 -363.17959717 241.60501404 -363.0067749 242.65257263 C-358.87114152 266.40197401 -351.12504665 292.60339622 -331.20257568 307.88401794 C-312.25539404 321.09583649 -289.83058545 323.64514816 -267.30023193 320.16526794 C-247.22304247 316.29887955 -231.86894917 304.86275597 -220.46429443 288.18870544 C-198.64790267 253.45662276 -197.07285702 204.6907127 -198.26507568 164.82151794 C-198.28441162 163.95720154 -198.30374756 163.09288513 -198.32366943 162.20237732 C-199.23681848 123.23239869 -202.265697 77.14491203 -231.26507568 47.82151794 C-238.64196048 41.44584927 -247.03781969 36.9093792 -256.26507568 33.82151794 C-257.16484131 33.50311951 -258.06460693 33.18472107 -258.99163818 32.85667419 C-289.14110617 24.03937695 -321.36893624 33.40084473 -341.75726318 56.66526794 Z M-401.26507568 525.82151794 C-428.41552632 562.41169479 -444.05036003 608.49138581 -437.49578857 654.22288513 C-433.88988271 674.22984672 -425.97361739 692.73207918 -412.26507568 707.82151794 C-411.72624756 708.44155701 -411.18741943 709.06159607 -410.63226318 709.70042419 C-383.57135054 739.00508086 -337.98596796 745.97887157 -300.26507568 747.82151794 C-294.03706408 748.006614 -287.80786134 748.01720661 -281.57757568 748.00901794 C-280.2972496 748.00811157 -280.2972496 748.00811157 -278.99105835 748.00718689 C-225.80728989 747.90556462 -169.32561631 741.001961 -129.26507568 702.82151794 C-128.65406006 702.28526794 -128.04304443 701.74901794 -127.41351318 701.19651794 C-112.82426634 687.87300484 -104.64194161 666.42786502 -103.35882568 647.02073669 C-103.32788818 646.29499451 -103.29695068 645.56925232 -103.26507568 644.82151794 C-103.21351318 644.14733826 -103.16195068 643.47315857 -103.10882568 642.77854919 C-102.41444761 627.35756958 -107.48225207 612.25264775 -117.45257568 600.50901794 C-145.78976096 571.45984309 -191.26029846 567.03462756 -229.14024544 559.6865263 C-233.06252565 558.92456574 -236.98374595 558.15718603 -240.90509033 557.39042664 C-248.34509171 555.9364146 -255.7859167 554.48666767 -263.2271018 553.03872705 C-277.19260488 550.32106698 -291.15634754 547.59437137 -305.12017822 544.86813354 C-308.31210632 544.24497361 -311.50408472 543.62207232 -314.69610596 542.99938965 C-341.27903501 537.81337866 -367.8451924 532.54792756 -394.39564514 527.19780731 C-396.68504449 526.73698429 -398.97493539 526.27864364 -401.26507568 525.82151794 Z " fill="#000000" transform="translate(553.2650756835938,12.178482055664063)"/>
      <path d="M0 0 C5.27625456 3.33388956 9.95974573 7.18926693 12.16650391 13.15185547 C12.79788911 16.91374664 13.10230957 20.63548857 13.3125 24.4375 C13.43194702 25.90221671 13.55692073 27.36649085 13.68676758 28.83032227 C13.9808819 32.20192943 14.24874136 35.57452436 14.50488281 38.94921875 C15.33095283 49.44017543 16.48055119 59.9037525 17.56379604 70.37072849 C18.04836635 75.05979633 18.51899378 79.75007624 18.98364258 84.44116211 C19.17242477 86.33427124 19.17242477 86.33427124 19.36502075 88.265625 C19.60345071 90.65872506 19.83985335 93.05202823 20.07394409 95.44555664 C20.18126862 96.51467285 20.28859314 97.58378906 20.39916992 98.68530273 C20.49147385 99.61898178 20.58377777 100.55266083 20.67887878 101.51463318 C20.96725646 103.74657638 21.39939872 105.83391553 22 108 C22.29543701 107.51345947 22.59087402 107.02691895 22.89526367 106.52563477 C32.3117592 91.10483632 42.43717254 76.52516945 54.82421875 63.328125 C56.69063466 61.33102646 58.44296363 59.28977674 60.1875 57.1875 C84.93191683 28.92464628 121.30363937 4.39592926 159 -1 C163.29041657 -1.21020525 167.57801195 -1.22801017 171.87329102 -1.24023438 C173.90098931 -1.24982727 175.92762184 -1.28084804 177.95507812 -1.3125 C199.29079396 -1.48606935 219.74158612 4.55715228 235.55078125 19.3984375 C252.16247128 37.04339055 256.80789664 58.6130262 256.28515625 82.16796875 C255.52856011 101.70334436 249.01700318 120.20293185 234.56640625 133.87109375 C218.09637175 147.53345114 197.83018849 152.53076588 176.76953125 150.72265625 C147.52117748 147.25251258 126.82403298 131.7088306 108 110 C107.33484375 109.12601562 106.6696875 108.25203125 105.984375 107.3515625 C100.81831156 101.22957393 93.29778417 97.25268928 85.3984375 96.15625 C75.78915028 95.5302378 69.22915419 98.53180482 61.90625 104.7890625 C46.91355565 119.24630348 35.69575081 137.19590091 27 156 C26.6745701 156.67078561 26.3491402 157.34157122 26.01384878 158.03268367 C22.9268138 164.91812668 22.43204014 170.85593602 22.49206543 178.33891296 C22.48582547 179.54560522 22.4795855 180.75229748 22.47315645 181.99555618 C22.46003 185.31919275 22.46466114 188.6419158 22.47710133 191.96549547 C22.48619298 195.56008137 22.47216148 199.1545904 22.46118164 202.74916077 C22.44343279 209.78208485 22.44722091 216.81483777 22.4588322 223.84776845 C22.4678842 229.56871607 22.46908289 235.28961589 22.46473694 241.01056862 C22.46381754 242.2343004 22.46381754 242.2343004 22.46287957 243.48275403 C22.46160059 245.14040473 22.46030373 246.79805542 22.4589892 248.4557061 C22.44759311 263.98673905 22.46067997 279.51767745 22.48219067 295.04869489 C22.50004396 308.35013764 22.49697028 321.65144065 22.47851562 334.95288086 C22.45706267 350.42248435 22.44870931 365.89200491 22.46096468 381.3616212 C22.46223878 383.01453164 22.46349626 384.66744209 22.46473694 386.32035255 C22.46535404 387.13346863 22.46597114 387.94658471 22.46660694 388.78434068 C22.47004786 394.49015037 22.46425842 400.19590711 22.45481873 405.9017086 C22.44354731 412.86749572 22.44674527 419.83310277 22.4679417 426.79886951 C22.47838615 430.34713982 22.48268872 433.895111 22.46934509 437.44337845 C22.20711267 465.29091216 22.20711267 465.29091216 34.44921875 489.76171875 C44.66086714 499.56181456 60.1110098 503.17193886 73.3125 506.875 C75.84837545 507.59877962 78.38310147 508.32637756 80.91703796 509.05691528 C82.47819713 509.50571319 84.04067306 509.94996155 85.60456848 510.38912964 C90.89064621 511.89064621 90.89064621 511.89064621 92 513 C92 519.93 92 526.86 92 534 C2.57 534 -86.86 534 -179 534 C-179 527.07 -179 520.14 -179 513 C-174.11309571 510.96378988 -169.22360608 509.05564834 -164.19921875 507.38671875 C-149.95165838 502.63975995 -138.85814644 498.11818242 -131.3125 484.4375 C-126.36644623 473.71727685 -125.55658728 462.39137459 -125.61904907 450.74417114 C-125.6155824 449.36580438 -125.61081112 447.98744041 -125.60486734 446.6090821 C-125.59246581 442.86339986 -125.59847758 439.11795002 -125.60782599 435.37226748 C-125.61466131 431.31625805 -125.60411313 427.2602864 -125.59588623 423.20428467 C-125.58259345 415.27456812 -125.58540689 407.3449371 -125.59412415 399.4152173 C-125.60091886 392.96545266 -125.60180971 386.51571187 -125.5985527 380.06594467 C-125.598093 379.14549044 -125.59763331 378.22503621 -125.59715968 377.27668943 C-125.59620043 375.4063646 -125.59522779 373.53603978 -125.5942419 371.66571496 C-125.58570081 354.15459265 -125.59550151 336.64351757 -125.611643 319.132403 C-125.62504054 304.13430621 -125.62272025 289.13627912 -125.60888672 274.13818359 C-125.59280051 256.68979016 -125.58652936 239.24143807 -125.59572351 221.79303825 C-125.59667908 219.92925446 -125.59762219 218.06547066 -125.5985527 216.20168686 C-125.59901553 215.28485525 -125.59947836 214.36802364 -125.59995521 213.42340926 C-125.60253632 206.9886645 -125.59819304 200.55394614 -125.59111404 194.11920547 C-125.58266478 186.26681264 -125.58505057 178.41450967 -125.60095628 170.56212701 C-125.60879385 166.56212098 -125.61200861 162.56226431 -125.60200882 158.56225967 C-124.46912781 125.46831015 -124.46912781 125.46831015 -138.79492188 96.86962891 C-146.65167221 90.2080928 -156.96473899 87.56024595 -166.75 85.125 C-168.52890625 84.66480469 -168.52890625 84.66480469 -170.34375 84.1953125 C-173.2260821 83.45148486 -176.11262041 82.72398687 -179 82 C-179 75.07 -179 68.14 -179 61 C-156.88958756 52.96260727 -134.73624737 45.04823778 -112.5625 37.1875 C-111.56127798 36.83255903 -111.56127798 36.83255903 -110.53982925 36.47044754 C-104.49956293 34.32921618 -98.45915437 32.18838619 -92.41862488 30.04789734 C-82.33985017 26.47622749 -72.26353656 22.89767164 -62.18920898 19.31347656 C-58.49938045 18.00076625 -54.80878221 16.69025996 -51.11743164 15.38183594 C-43.67683062 12.74295552 -36.23969378 10.09740837 -28.82688904 7.38124084 C-25.89630995 6.30795464 -22.96278756 5.24285472 -20.02902222 4.17831421 C-18.07132023 3.46353965 -16.1188523 2.73566981 -14.16625977 2.00708008 C-13.01826904 1.59095459 -11.87027832 1.1748291 -10.6875 0.74609375 C-9.70136719 0.38185303 -8.71523438 0.0176123 -7.69921875 -0.35766602 C-4.58166537 -1.09955123 -3.02230153 -1.05123532 0 0 Z " fill="#000000" transform="translate(777,1)"/>
      <path d="M0 0 C14.02992307 11.79985813 23.84428533 29.70048822 25.64550781 48.00854492 C25.77918227 51.09716759 25.81210989 54.16261306 25.78125 57.25390625 C25.77222656 58.34622559 25.76320313 59.43854492 25.75390625 60.56396484 C25.29751062 81.95434066 16.03447659 99.85129639 0.71875 114.56640625 C-16.13529533 129.19395711 -36.71878766 134.46071552 -58.65625 132.94140625 C-78.90334355 130.31031186 -96.69806953 120.0178967 -109.7578125 104.43359375 C-123.70554929 85.32457991 -126.65226955 65.12644854 -124.25390625 42.07421875 C-120.646885 23.1668263 -108.04168245 5.75626358 -92.62109375 -5.21875 C-62.94787843 -24.5081427 -27.53975314 -21.34330869 0 0 Z " fill="#000000" transform="translate(2134.65625,402.05859375)"/>
  </svg>
</svg>
