<?xml version="1.0" encoding="UTF-8"?>
<svg version="1.1" xmlns="http://www.w3.org/2000/svg" width="4289" height="1573">
<path d="M0 0 C2.08911948 1.65335806 4.08562219 3.34287382 6.046875 5.14868164 C6.91054687 5.94016602 7.77421875 6.73165039 8.6640625 7.54711914 C9.64591207 8.45588825 10.62767716 9.36474863 11.609375 10.27368164 C12.77835637 11.34951708 13.94763945 12.42502476 15.1171875 13.50024414 C25.71948634 23.25824026 25.71948634 23.25824026 26.23852539 28.14794922 C26.41032822 29.73600372 26.41032822 29.73600372 26.58560181 31.35614014 C26.76945938 33.11936615 26.76945938 33.11936615 26.95703125 34.91821289 C27.15563248 36.77292206 27.15563248 36.77292206 27.35824585 38.6651001 C27.72378868 42.08779271 28.08533667 45.51086432 28.44514084 48.93416214 C28.82433755 52.53326128 29.2085224 56.13182808 29.59204102 59.73046875 C30.51450114 68.39716845 31.42833247 77.06477025 32.34150696 85.73245239 C32.80090128 90.09066655 33.26134102 94.44877027 33.72167969 98.80688477 C36.0261955 120.62824688 38.32167561 142.45055034 40.609375 164.27368164 C43.69205073 164.27368164 44.83132147 162.40993974 47.046875 160.33618164 C51.45182446 156.29043407 55.98295594 152.47817395 60.6328125 148.71899414 C63.36140488 146.47739463 66.03897699 144.1903314 68.70654297 141.87719727 C75.19748452 136.25088265 81.83044475 130.87082006 88.69970703 125.71069336 C90.8613886 124.08404318 93.01447533 122.4463114 95.16796875 120.80883789 C126.77190526 96.85278446 159.98353657 75.10907347 194.68115234 55.89868164 C197.58740493 54.2858738 200.48311019 52.65517128 203.37890625 51.02368164 C263.43021456 17.49906209 330.46303614 -1.00161949 399.296875 -0.91381836 C400.72225082 -0.91241348 400.72225082 -0.91241348 402.17642212 -0.91098022 C449.65943829 -0.80985184 497.42954678 5.49577757 540.609375 26.27368164 C541.32480469 26.6177002 542.04023438 26.96171875 542.77734375 27.31616211 C571.50413626 41.34598222 596.79306379 63.50629298 615.609375 89.27368164 C616.10034668 89.94157715 616.59131836 90.60947266 617.09716797 91.29760742 C634.01668811 114.43114733 647.09911779 139.34131731 657.65478516 165.98144531 C658.55128835 168.1341994 659.53918134 170.20267527 660.609375 172.27368164 C662.11634741 170.86847317 663.62325279 169.46319276 665.12988281 168.05761719 C666.46741047 166.80999488 667.80531077 165.56277197 669.14355469 164.31591797 C672.70238485 160.99756045 676.25173518 157.6700962 679.78125 154.32055664 C686.32715708 148.11806188 692.87585156 142.04218846 699.9375 136.42211914 C702.3311422 134.49740684 704.66031591 132.51385704 706.98046875 130.50170898 C715.35374598 123.26905587 724.19542644 116.68281725 733.10009766 110.12280273 C734.70646489 108.93904855 736.31053241 107.75216329 737.91162109 106.5612793 C764.44154833 86.83239418 793.08534482 70.09429404 822.609375 55.27368164 C823.76791992 54.68973633 824.92646484 54.10579102 826.12011719 53.50415039 C876.10111977 28.3922359 928.97351673 9.65289333 984.609375 2.27368164 C985.81787109 2.1114209 987.02636719 1.94916016 988.27148438 1.78198242 C1056.32686395 -6.92716481 1134.46098735 -1.14151623 1196.609375 29.27368164 C1197.51042969 29.71196289 1198.41148438 30.15024414 1199.33984375 30.60180664 C1212.60158463 37.11634602 1224.87234313 44.29418538 1236.609375 53.27368164 C1238.01703125 54.33522461 1238.01703125 54.33522461 1239.453125 55.41821289 C1246.18305209 60.64668473 1252.41008171 66.43651675 1258.609375 72.27368164 C1259.31964844 72.92981445 1260.02992187 73.58594727 1260.76171875 74.26196289 C1266.56320208 79.80243879 1271.40824199 86.07947701 1276.23779297 92.4621582 C1277.11401138 93.6194278 1277.99535956 94.77284297 1278.88330078 95.92114258 C1335.26153721 169.01813352 1332.76809526 269.5975678 1332.75170372 357.03080253 C1332.75047358 364.81590293 1332.75520077 372.60099718 1332.76020336 380.38609567 C1332.76879605 393.87449936 1332.77419629 407.36290177 1332.77740487 420.85130773 C1332.78257755 442.25243371 1332.79808769 463.65354334 1332.81698135 485.05466117 C1332.82100111 489.62463889 1332.82492251 494.1946167 1332.82884771 498.7645945 C1332.82963036 499.67521886 1332.83041302 500.58584322 1332.83121939 501.52406226 C1332.83280487 503.36905217 1332.8343897 505.21404207 1332.83597388 507.05903197 C1332.83756515 508.91058284 1332.8391594 510.7621337 1332.84075661 512.61368457 C1332.85953202 534.38275469 1332.87664756 556.15182587 1332.89233398 577.92089844 C1332.8930229 578.87188822 1332.89371182 579.822878 1332.89442162 580.80268566 C1332.91672037 611.69149366 1332.92853471 642.5802968 1332.93600054 673.46911156 C1332.94376975 705.29852417 1332.96483595 737.12790387 1333.00154315 768.95729677 C1333.00671602 773.45341439 1333.01172344 777.94953218 1333.01662254 782.4456501 C1333.01807298 783.77270128 1333.01807298 783.77270128 1333.01955272 785.12656156 C1333.03466393 799.33370152 1333.03559538 813.54080836 1333.03096541 827.74795414 C1333.02657609 842.02131126 1333.03652397 856.29460066 1333.06105248 870.5679379 C1333.07515701 879.03604267 1333.07822112 887.50398115 1333.06520995 895.97208856 C1333.05760337 901.63851195 1333.06463083 907.30479928 1333.08319146 912.97119696 C1333.09333172 916.19235358 1333.09520475 919.41311575 1333.08356623 922.63427686 C1332.99462284 949.36211201 1336.66459308 973.65473929 1355.671875 993.96118164 C1363.98194587 1001.89404159 1373.50763938 1007.46026478 1384.35546875 1011.20336914 C1385.08012833 1011.45600021 1385.8047879 1011.70863129 1386.55140686 1011.96891785 C1395.41834741 1014.98694307 1404.47406086 1017.28229456 1413.546875 1019.58618164 C1416.12317087 1020.24670236 1418.69889417 1020.90936403 1421.27406311 1021.57426453 C1422.85699382 1021.98233965 1424.44065593 1022.38759106 1426.02513123 1022.78962708 C1431.38885207 1024.16342017 1431.38885207 1024.16342017 1433.609375 1025.27368164 C1433.609375 1039.79368164 1433.609375 1054.31368164 1433.609375 1069.27368164 C1272.899375 1069.27368164 1112.189375 1069.27368164 946.609375 1069.27368164 C946.609375 1054.75368164 946.609375 1040.23368164 946.609375 1025.27368164 C950.156875 1024.24243164 953.704375 1023.21118164 957.359375 1022.14868164 C959.57308558 1021.49951781 961.78665597 1020.84987539 964 1020.19946289 C968.02339857 1019.02025108 972.05172535 1017.8677237 976.09375 1016.75415039 C998.44740189 1010.50550297 1018.65324652 1000.29944165 1030.796875 979.58618164 C1042.37329297 958.89030167 1043.05294946 937.96762229 1042.99032593 914.87445068 C1042.99212398 912.09222528 1042.99843075 909.31001399 1043.00450766 906.52779508 C1043.01529393 900.49765322 1043.01504425 894.46759207 1043.00736618 888.43744659 C1042.99597882 879.46950391 1043.00184083 870.50162882 1043.0109911 861.53368653 C1043.02676279 845.50989229 1043.02542878 829.48613401 1043.01675436 813.46233637 C1043.00919679 799.43184966 1043.00724262 785.40137609 1043.0108223 771.37088776 C1043.01105145 770.43888066 1043.01128061 769.50687356 1043.01151671 768.54662383 C1043.0124508 764.76282318 1043.013406 760.97902255 1043.014396 757.19522192 C1043.02356869 721.71314741 1043.01526109 686.23109573 1042.99910531 650.74902475 C1042.98488308 619.27448407 1042.98613107 587.79997981 1043.00048828 556.32543945 C1043.01658257 520.9248579 1043.02290403 485.52429653 1043.01365149 450.12371182 C1043.01268943 446.34322946 1043.0117509 442.56274708 1043.0108223 438.78226471 C1043.01058506 437.85148683 1043.01034783 436.92070896 1043.01010341 435.9617257 C1043.00670212 421.95365253 1043.01066129 407.94559402 1043.01826096 393.93752289 C1043.02687106 377.9879098 1043.02462645 362.03833816 1043.00841872 346.08873019 C1042.99966316 337.18070372 1042.99895677 328.27276717 1043.01035725 319.36474319 C1043.01715287 313.39172485 1043.01277616 307.4187776 1042.99984294 301.44576968 C1042.99280105 298.05741566 1042.99177163 294.66938098 1043.00106089 291.28101191 C1043.10956928 248.36776465 1039.40148565 199.62956553 1007.984375 167.14868164 C988.38473771 147.69849353 960.37022204 139.54012322 933.609375 136.27368164 C932.85769043 136.17941895 932.10600586 136.08515625 931.33154297 135.98803711 C921.91314723 134.96751313 912.44671212 135.02998858 902.984375 135.02368164 C902.07375305 135.0230069 901.1631311 135.02233215 900.22491455 135.02163696 C885.50033908 135.03892578 871.13758694 135.69971475 856.609375 138.27368164 C855.69269043 138.42933594 854.77600586 138.58499023 853.83154297 138.74536133 C829.58705755 142.99907773 805.61945023 151.31219384 783.609375 162.27368164 C782.71766602 162.71405762 781.82595703 163.15443359 780.90722656 163.6081543 C745.77978251 181.0867631 712.03360753 203.40053777 681.87890625 228.55102539 C679.609375 230.27368164 679.609375 230.27368164 677.609375 230.27368164 C677.95548828 231.66973633 677.95548828 231.66973633 678.30859375 233.09399414 C683.95356158 257.16077525 686.36842721 282.11063231 688.359375 306.71118164 C688.41835968 307.4323114 688.47734436 308.15344116 688.53811646 308.89642334 C690.23238753 329.97403779 690.75822416 351.04119392 690.74067688 372.18060303 C690.74238385 374.60659355 690.74453572 377.0325838 690.74708813 379.45857358 C690.75164507 384.68864363 690.75324491 389.91870547 690.75212288 395.14877701 C690.75049753 402.92687755 690.75470877 410.70496759 690.76020336 418.48306599 C690.76881459 430.78035955 690.77420279 443.07765172 690.77740487 455.37494779 C690.78257157 474.90450477 690.79807418 494.43404375 690.81698135 513.96359179 C690.82100163 518.13168812 690.82492294 522.29978454 690.82884771 526.46788096 C690.82963036 527.29855543 690.83041302 528.1292299 690.83121939 528.98507633 C690.83280491 530.66820074 690.83438974 532.35132515 690.83597388 534.03444956 C690.83756516 535.72367449 690.83915941 537.41289941 690.84075661 539.10212433 C690.85955069 558.98352756 690.87665474 578.86493197 690.89233398 598.74633789 C690.8930229 599.61526851 690.89371182 600.48419914 690.89442162 601.37946099 C690.91668363 629.55609007 690.92852401 657.73271384 690.93600054 685.9093503 C690.94378003 714.94089277 690.9648911 743.97239923 691.00154315 773.00392015 C691.00671575 777.11080062 691.01172324 781.21768127 691.01662254 785.32456207 C691.01807298 786.5367159 691.01807298 786.5367159 691.01955272 787.77335769 C691.03463403 800.72399597 691.03560199 813.67459788 691.03096541 826.62524254 C691.02656255 839.65878863 691.03659914 852.69226079 691.06105248 865.72578523 C691.07509634 873.44765361 691.07828527 881.16933998 691.06520995 888.89121106 C691.05664153 894.68643327 691.06926532 900.48146633 691.0894989 906.27665249 C691.09444064 908.59876744 691.09286782 910.92090902 691.08356623 913.24301061 C690.99065833 938.44781841 691.54177879 974.10295865 709.671875 994.02368164 C724.84162638 1007.66649962 745.33741131 1012.59677042 764.421875 1018.08618164 C767.43960586 1018.9608688 770.45670953 1019.83766302 773.47331238 1020.7162323 C775.33444083 1021.2575852 777.19632364 1021.79635296 779.05903625 1022.33222961 C779.8913829 1022.57305771 780.72372955 1022.8138858 781.58129883 1023.06201172 C782.31326981 1023.27263748 783.04524078 1023.48326324 783.7993927 1023.70027161 C785.609375 1024.27368164 785.609375 1024.27368164 787.609375 1025.27368164 C787.609375 1039.79368164 787.609375 1054.31368164 787.609375 1069.27368164 C626.239375 1069.27368164 464.869375 1069.27368164 298.609375 1069.27368164 C298.609375 1054.75368164 298.609375 1040.23368164 298.609375 1025.27368164 C319.16154393 1018.78352303 319.16154393 1018.78352303 329.44042969 1015.90209961 C346.14776357 1011.20813438 362.36126355 1006.5653755 376.609375 996.27368164 C377.681875 995.51055664 378.754375 994.74743164 379.859375 993.96118164 C397.10058968 977.11181275 401.50453778 951.50685003 401.83680274 928.37895942 C401.88068028 922.42129959 401.87439233 916.46414907 401.86334229 910.50637817 C401.86454115 907.79285273 401.86874576 905.07933372 401.87279677 902.36581123 C401.87998599 896.48583313 401.87982216 890.60589183 401.87470245 884.72591209 C401.86710946 875.98135887 401.87101961 867.23683644 401.87711907 858.4922834 C401.88763216 842.86791387 401.88674478 827.24356072 401.88096124 811.61918964 C401.87592272 797.93949295 401.87462015 784.25980226 401.87700653 770.58010483 C401.8771593 769.67137538 401.87731207 768.76264593 401.87746947 767.82637922 C401.8780922 764.13709421 401.878729 760.4478092 401.879389 756.75852419 C401.88550371 722.16519867 401.87996622 687.57188355 401.8691952 652.97855963 C401.8597124 622.28949316 401.8605469 591.60044328 401.87011719 560.91137695 C401.88084517 526.39490691 401.885062 491.87844608 401.87889266 457.3619746 C401.87825128 453.6764551 401.8776256 449.99093561 401.87700653 446.30541611 C401.87684838 445.39801694 401.87669022 444.49061778 401.87652727 443.55572168 C401.87425925 429.89638928 401.8769001 416.23706356 401.88196564 402.57773209 C401.88770387 387.02735228 401.88621308 371.47699136 401.87540415 355.92661388 C401.86956435 347.24036214 401.86910029 338.55415137 401.8766965 329.86790076 C401.88122344 324.04526757 401.87831514 318.22266683 401.86968696 312.40003841 C401.86498783 309.09598384 401.86431343 305.79207503 401.87049893 302.48801352 C401.94458239 259.58648819 400.46646673 207.97158752 371.609375 173.27368164 C370.99707031 172.50024414 370.38476562 171.72680664 369.75390625 170.92993164 C353.77928363 151.69450976 328.4324855 142.85599659 304.609375 138.27368164 C303.82643066 138.12125 303.04348633 137.96881836 302.23681641 137.81176758 C274.11233951 132.6248993 243.54010345 133.47700761 215.609375 139.27368164 C214.72378906 139.45560059 213.83820312 139.63751953 212.92578125 139.82495117 C207.08030308 141.0694508 201.33988969 142.5800255 195.609375 144.27368164 C194.70219727 144.54132324 193.79501953 144.80896484 192.86035156 145.0847168 C141.75395853 160.49319859 85.63737378 191.24568287 47.609375 229.27368164 C47.51128288 230.81712325 47.48338847 232.36506801 47.48287517 233.91162348 C47.48011542 234.9229409 47.47735568 235.93425833 47.47451231 236.97622174 C47.47656763 238.10300755 47.47862295 239.22979335 47.48074055 240.39072418 C47.47811099 242.17533553 47.47811099 242.17533553 47.47542831 243.99599963 C47.47155095 247.32820003 47.47221014 250.6603459 47.47470608 253.99254414 C47.4763304 257.60667823 47.47220564 261.22080631 47.46879691 264.83493853 C47.463627 271.1794653 47.46222845 277.52398444 47.46325302 283.86851311 C47.46477298 293.30360864 47.46062711 302.73869568 47.4553784 312.17378956 C47.44568587 330.00671154 47.44289339 347.83963066 47.44232134 365.67255497 C47.44186233 379.44813142 47.43980678 393.22370675 47.43662071 406.99928284 C47.43572319 410.96041314 47.43483338 414.92154344 47.43394583 418.88267374 C47.43372479 419.86737254 47.43350374 420.85207134 47.43327599 421.8666095 C47.42711743 449.58409485 47.42317584 477.3015798 47.42361927 505.01906586 C47.42363485 506.06505333 47.42365043 507.1110408 47.42366648 508.18872486 C47.42374959 513.49051902 47.42384863 518.79231317 47.42395119 524.09410733 C47.42397113 525.14710298 47.42399108 526.20009863 47.42401163 527.28500324 C47.42405206 529.41442396 47.42409386 531.54384468 47.42413702 533.6732654 C47.42474928 566.7765661 47.41725415 599.87985654 47.40356445 632.9831543 C47.38819729 670.15828674 47.37959871 707.33341244 47.38052768 744.50854826 C47.38060231 748.47470824 47.38065101 752.44086822 47.38068199 756.4070282 C47.38069365 757.3836229 47.3807053 758.36021759 47.38071731 759.36640607 C47.38074807 775.07438799 47.37436508 790.78236099 47.36574973 806.49034026 C47.35726425 822.28880211 47.3562902 838.08725095 47.36285905 853.88571382 C47.36654954 863.26697863 47.36473743 872.6482039 47.35491671 882.02946451 C47.34890412 888.30441533 47.35022638 894.57933759 47.35738721 900.85428712 C47.36125811 904.42431372 47.36207524 907.99426397 47.35392985 911.5642851 C47.29253595 940.40540148 48.09979154 969.95795804 68.140625 992.81274414 C82.04064787 1006.6687796 99.20547796 1011.65599245 117.546875 1017.02368164 C120.46553096 1017.88820042 123.38337322 1018.75542584 126.30116272 1019.62286377 C128.10241501 1020.157248 129.90433164 1020.68939987 131.70701599 1021.21893311 C132.93473473 1021.58006195 132.93473473 1021.58006195 134.18725586 1021.94848633 C134.89861191 1022.15689148 135.60996796 1022.36529663 136.34288025 1022.58001709 C139.1140966 1023.42815254 141.85999754 1024.35722249 144.609375 1025.27368164 C144.609375 1039.79368164 144.609375 1054.31368164 144.609375 1069.27368164 C-19.070625 1069.27368164 -182.750625 1069.27368164 -351.390625 1069.27368164 C-351.390625 1054.75368164 -351.390625 1040.23368164 -351.390625 1025.27368164 C-348.008125 1024.28368164 -344.625625 1023.29368164 -341.140625 1022.27368164 C-339.98522217 1021.9346582 -338.82981934 1021.59563477 -337.6394043 1021.24633789 C-331.82429314 1019.54564483 -326.00174517 1017.88124152 -320.16015625 1016.27368164 C-294.49504528 1009.20232463 -294.49504528 1009.20232463 -271.390625 996.27368164 C-270.318125 995.51055664 -269.245625 994.74743164 -268.140625 993.96118164 C-257.65993857 983.71869262 -253.33957661 970.28856745 -250.140625 956.33618164 C-249.91403198 955.35584961 -249.91403198 955.35584961 -249.68286133 954.35571289 C-246.30801641 938.39705537 -246.10251725 922.47533708 -246.13665771 906.24406433 C-246.13434954 903.83912621 -246.13117063 901.43418879 -246.12720323 899.02925283 C-246.12062152 893.82505164 -246.12017069 888.62088826 -246.12529755 883.41668701 C-246.13290387 875.67391556 -246.12897266 867.93117879 -246.12288093 860.18840753 C-246.11236804 846.33588185 -246.11325723 832.48337467 -246.11903876 818.63084725 C-246.12408984 806.46572697 -246.12537421 794.30061344 -246.12299347 782.13549232 C-246.1228407 781.32536139 -246.12268793 780.51523045 -246.12253053 779.6805501 C-246.12190767 776.39039979 -246.12127086 773.1002495 -246.120611 769.8100992 C-246.11449291 738.93287141 -246.12003302 708.05565526 -246.1308048 677.17842927 C-246.14023568 649.93925903 -246.13949779 622.70010755 -246.12988281 595.4609375 C-246.11907388 564.73772037 -246.11498674 534.01451364 -246.12110734 503.29129487 C-246.12174851 499.98670566 -246.12237422 496.68211645 -246.12299347 493.37752724 C-246.1232307 492.15737122 -246.1232307 492.15737122 -246.12347273 490.91256558 C-246.12556652 479.61345782 -246.12378758 468.3143569 -246.11901973 457.01525004 C-246.01783139 371.96513049 -246.01783139 371.96513049 -247.28222656 286.92724609 C-247.30184517 286.07029655 -247.32146378 285.21334701 -247.34167689 284.3304293 C-246.61016602 236.332999 -246.61016602 236.332999 -266.515625 194.27368164 C-274.33595338 187.27935046 -283.47587578 182.65879611 -293.36328125 179.39868164 C-294.12870239 179.14528519 -294.89412354 178.89188873 -295.68273926 178.6308136 C-306.08944053 175.28837722 -316.74817482 172.91719618 -327.390625 170.46118164 C-330.53084497 169.72957106 -333.67048703 168.99558168 -336.80957031 168.2591095 C-338.74304884 167.80619 -340.67726946 167.35642389 -342.61230469 166.91020203 C-343.47500977 166.70941544 -344.33771484 166.50862885 -345.2265625 166.30175781 C-345.98501465 166.12666183 -346.7434668 165.95156586 -347.52490234 165.77116394 C-349.390625 165.27368164 -349.390625 165.27368164 -351.390625 164.27368164 C-351.390625 151.07368164 -351.390625 137.87368164 -351.390625 124.27368164 C-325.19349884 114.79812537 -298.97623053 105.38008616 -272.75003052 95.98535156 C-264.89258682 93.17054705 -257.0359 90.35363924 -249.1796875 87.53540039 C-225.41406374 79.01060718 -201.64246567 70.50280196 -177.8637085 62.01470947 C-160.8059022 55.92544218 -143.75220642 49.82483523 -126.703125 43.71118164 C-125.07540161 43.12752335 -125.07540161 43.12752335 -123.41479492 42.53207397 C-113.49274157 38.97413894 -103.57107786 35.41511846 -93.64990234 31.85473633 C-92.53194275 31.45355591 -91.41398315 31.05237549 -90.262146 30.63903809 C-88.00255733 29.82815814 -85.74299512 29.01720444 -83.48345947 28.20617676 C-77.92681355 26.21209064 -72.36935588 24.22032603 -66.81005859 22.23364258 C-64.64027035 21.45800792 -62.47051108 20.68229218 -60.30078125 19.90649414 C-59.23575378 19.52569702 -58.17072632 19.1448999 -57.07342529 18.75256348 C-50.52689009 16.40802098 -43.9905243 14.03716447 -37.46078491 11.64625549 C-33.25043657 10.10636121 -29.0360582 8.57770076 -24.82104492 7.05062866 C-22.84150106 6.33005871 -20.86391432 5.60408696 -18.88842773 4.87246704 C-16.18428596 3.87141567 -13.47408468 2.8889043 -10.76171875 1.91040039 C-9.56886513 1.46052261 -9.56886513 1.46052261 -8.35191345 1.0015564 C-2.9820313 -0.90599909 -2.9820313 -0.90599909 0 0 Z " fill="#000000" transform="translate(2375.390625,2.726318359375)"/>
<path d="M0 0 C2.38740159 0.86356359 4.20661189 1.98412421 6.29980469 3.42138672 C7.09902344 3.96859375 7.89824219 4.51580078 8.72167969 5.07958984 C9.96304687 5.94293945 9.96304687 5.94293945 11.22949219 6.82373047 C12.03386719 7.37222656 12.83824219 7.92072266 13.66699219 8.48583984 C15.26904626 9.59013111 16.85863986 10.71277332 18.43366432 11.85528564 C20.17001867 13.09437545 21.93834791 14.29022221 23.73959923 15.43292236 C30.55069351 20.11197064 30.55069351 20.11197064 32.00740433 24.45018005 C32.33439933 27.66153931 32.34307576 30.73393893 32.23974609 33.96044922 C32.24095144 35.18061234 32.24215679 36.40077545 32.24339867 37.65791321 C32.23596071 41.59007025 32.15996172 45.51742718 32.08105469 49.44873047 C32.06634303 51.88295206 32.05614666 54.31720526 32.05053711 56.75146484 C31.99820952 65.75520398 31.85859563 74.75826491 31.72949219 83.76123047 C31.52324219 103.89123047 31.31699219 124.02123047 31.10449219 144.76123047 C-45.12550781 144.76123047 -121.35550781 144.76123047 -199.89550781 144.76123047 C-195.60550781 150.70123047 -191.31550781 156.64123047 -186.89550781 162.76123047 C-184.56112393 166.30920841 -182.27768075 169.82212459 -180.08300781 173.44873047 C-179.54297119 174.3355249 -179.00293457 175.22231934 -178.4465332 176.13598633 C-176.91526845 178.66958353 -175.40071683 181.21208616 -173.89550781 183.76123047 C-173.51587891 184.4002832 -173.13625 185.03933594 -172.74511719 185.69775391 C-128.22766629 261.66682642 -122.03756163 364.2155387 -143.93261719 448.28662109 C-148.82360397 465.93584115 -154.84675516 483.29657476 -162.89550781 499.76123047 C-163.37818115 500.76766602 -163.37818115 500.76766602 -163.87060547 501.79443359 C-166.12780331 506.49515191 -168.4730648 511.14359266 -170.89550781 515.76123047 C-171.23130859 516.40237793 -171.56710937 517.04352539 -171.91308594 517.70410156 C-180.81846973 534.52209628 -191.79132796 550.10049077 -203.89550781 564.76123047 C-204.34732422 565.31601074 -204.79914062 565.87079102 -205.26464844 566.44238281 C-212.52606454 575.31095849 -220.44419269 583.51516265 -228.52050781 591.63623047 C-229.00161011 592.12259979 -229.4827124 592.60896912 -229.97839355 593.1100769 C-236.60377555 599.79152243 -243.5383895 605.89471137 -250.89550781 611.76123047 C-251.93484237 612.6362726 -252.9699639 613.5163982 -253.99707031 614.40576172 C-326.42449725 676.6305635 -425.90155961 697.87883269 -547.89550781 704.76123047 C-548.88275848 704.77766602 -548.88275848 704.77766602 -549.88995361 704.79443359 C-633.46146341 706.12333077 -715.24154258 695.53406244 -807.89550781 658.76123047 C-807.9654369 669.69786489 -808.01853486 680.63444494 -808.05094433 691.57125854 C-808.06650988 696.6512652 -808.08757884 701.73111737 -808.12182617 706.81103516 C-808.15474817 711.72588592 -808.17242906 716.64058936 -808.18013954 721.55554199 C-808.18562476 723.4179516 -808.19633333 725.2803544 -808.21269798 727.1427002 C-808.4044756 749.90089038 -804.95684242 771.1358744 -788.77050781 788.44873047 C-775.43700511 801.04023386 -759.09127315 806.08459307 -741.57983398 809.61425781 C-740.30517116 809.87427267 -739.03050833 810.13428753 -737.71721935 810.40218163 C-724.48980508 813.0886256 -711.22193649 815.55300125 -697.94628906 817.98779297 C-695.2455222 818.48529051 -692.54494286 818.98380262 -689.84436035 819.4822998 C-684.02513301 820.55600438 -678.20552416 821.62761869 -672.38565063 822.69781494 C-663.00179153 824.42349411 -653.61885034 826.15413273 -644.23608398 827.88574219 C-643.42653782 828.03513945 -642.61699167 828.18453671 -641.7829138 828.33846116 C-638.44817421 828.95387146 -635.11343671 829.56929309 -631.77870804 830.1847626 C-626.597421 831.14102534 -621.41607706 832.09697905 -616.23469096 833.05270493 C-575.09541362 840.64114177 -533.96269605 848.26493632 -492.83121294 855.89549339 C-483.23143408 857.67640078 -473.63153168 859.45663825 -464.03140259 861.23565674 C-338.56523981 884.48688783 -338.56523981 884.48688783 -314.77050781 890.07373047 C-313.80897797 890.29701019 -312.84744812 890.52028992 -311.85678101 890.75033569 C-261.98192049 902.34915217 -212.75769369 916.49700842 -164.89550781 934.76123047 C-164.27047363 934.99908264 -163.64543945 935.23693481 -163.00146484 935.48199463 C-127.72429565 948.93976301 -93.92116504 966.2650845 -65.46948242 991.37597656 C-64.32793856 992.38064848 -63.17937245 993.37735947 -62.02661133 994.36914062 C-50.70170485 1004.1462961 -39.88999199 1014.77989871 -30.89550781 1026.76123047 C-30.50202148 1027.28362305 -30.10853516 1027.80601563 -29.703125 1028.34423828 C11.74032006 1083.74214028 20.70552561 1156.5885016 11.10449219 1223.76123047 C6.82529861 1250.48102882 -0.99970558 1276.02534686 -11.89550781 1300.76123047 C-12.38204834 1301.87884766 -12.38204834 1301.87884766 -12.87841797 1303.01904297 C-26.67148971 1334.44810338 -46.93972373 1362.55838625 -68.89550781 1388.76123047 C-69.7140625 1389.76541016 -70.53261719 1390.76958984 -71.37597656 1391.80419922 C-77.68187691 1399.44474201 -84.4745856 1406.54960657 -91.45800781 1413.57373047 C-92.32006836 1414.44497559 -93.18212891 1415.3162207 -94.0703125 1416.21386719 C-99.28689368 1421.405758 -104.68894702 1426.19385345 -110.44726562 1430.77832031 C-112.74066849 1432.63582112 -114.91921851 1434.56800482 -117.08300781 1436.57373047 C-181.05638954 1493.55002357 -270.80021779 1528.68296476 -381.89550781 1554.76123047 C-382.56658569 1554.89746826 -383.23766357 1555.03370605 -383.92907715 1555.17407227 C-424.48680098 1563.39499841 -465.64109525 1567.91271583 -506.89550781 1570.76123047 C-507.75486938 1570.82181641 -508.61423096 1570.88240234 -509.49963379 1570.94482422 C-594.8224118 1576.90132785 -683.04994399 1574.37206027 -867.89550781 1533.76123047 C-869.52190186 1533.18260254 -869.52190186 1533.18260254 -871.18115234 1532.59228516 C-910.10066028 1518.57738005 -947.86007236 1499.40108239 -978.89550781 1471.76123047 C-979.41483887 1471.30361328 -979.93416992 1470.84599609 -980.46923828 1470.37451172 C-1010.46837852 1443.87357002 -1032.45071759 1407.26174266 -1042.27050781 1368.44873047 C-1042.50914551 1367.50771484 -1042.7477832 1366.56669922 -1042.99365234 1365.59716797 C-1046.42170488 1351.26032351 -1047.30504189 1337.18019144 -1047.27050781 1322.51123047 C-1047.26996399 1321.63716553 -1047.26942017 1320.76310059 -1047.26885986 1319.86254883 C-1047.22521162 1304.52211303 -1046.05833418 1289.81192144 -1042.89550781 1274.76123047 C-1042.68651855 1273.75286133 -1042.4775293 1272.74449219 -1042.26220703 1271.70556641 C-1034.32447132 1234.61523281 -1017.7384503 1197.7990116 -995.89550781 1166.76123047 C-995.51958496 1166.22079102 -995.14366211 1165.68035156 -994.75634766 1165.12353516 C-984.93586448 1151.01387656 -974.2712815 1137.64622787 -962.89550781 1124.76123047 C-962.45223145 1124.25865723 -962.00895508 1123.75608398 -961.55224609 1123.23828125 C-955.04352368 1115.91384428 -948.18132947 1108.92672764 -941.28167725 1101.97216797 C-939.87697685 1100.55557185 -938.47626374 1099.13502539 -937.07568359 1097.71435547 C-931.73589064 1092.36784096 -926.23697828 1087.41995076 -920.32006836 1082.71826172 C-918.05518545 1080.89011738 -915.9049946 1078.98876563 -913.77050781 1077.01123047 C-897.64047816 1062.5458658 -879.21529436 1050.25827559 -860.89550781 1038.76123047 C-863.18995133 1037.23160146 -865.07516012 1036.16732355 -867.56347656 1035.09716797 C-868.28374023 1034.78392578 -869.00400391 1034.47068359 -869.74609375 1034.14794922 C-870.51727539 1033.81408203 -871.28845703 1033.48021484 -872.08300781 1033.13623047 C-918.30805576 1012.82325165 -960.5240284 983.19502944 -979.89550781 934.76123047 C-990.32372565 906.5917983 -992.37846328 875.10608459 -985.89550781 845.76123047 C-985.71810059 844.94348145 -985.54069336 844.12573242 -985.35791016 843.28320312 C-978.22936609 811.90914448 -959.69761857 784.35473909 -940.89550781 758.76123047 C-940.11820313 757.70033203 -939.34089844 756.63943359 -938.54003906 755.54638672 C-930.24007982 744.36714958 -921.53381472 733.50911451 -912.73242188 722.72314453 C-909.24066238 718.43752142 -905.7976011 714.11829731 -902.39550781 709.76123047 C-897.91350671 704.02112379 -893.33594224 698.36429801 -888.73144531 692.72216797 C-885.24020698 688.43671429 -881.79731893 684.11793594 -878.39550781 679.76123047 C-874.45355184 674.71276053 -870.44490187 669.72390985 -866.39550781 664.76123047 C-862.15466166 659.5575874 -857.93451689 654.33915085 -853.77050781 649.07373047 C-853.32126953 648.50976562 -852.87203125 647.94580078 -852.40917969 647.36474609 C-849.98474554 644.28485817 -847.83082215 641.17016651 -845.89550781 637.76123047 C-846.99318481 637.35396729 -846.99318481 637.35396729 -848.11303711 636.93847656 C-850.7865452 635.80733187 -853.00202228 634.52914358 -855.41503906 632.92529297 C-856.26437012 632.36189209 -857.11370117 631.79849121 -857.98876953 631.21801758 C-858.88611816 630.61352783 -859.7834668 630.00903809 -860.70800781 629.38623047 C-861.6414502 628.75918213 -862.57489258 628.13213379 -863.53662109 627.48608398 C-882.13687115 614.89981934 -898.84847982 600.96011792 -914.77050781 585.13623047 C-915.50033371 584.41444107 -915.50033371 584.41444107 -916.24490356 583.67807007 C-932.51280166 567.54633666 -946.86311058 548.87379004 -957.89550781 528.76123047 C-958.35666992 527.92108398 -958.81783203 527.0809375 -959.29296875 526.21533203 C-988.04730242 473.364979 -1000.16937197 415.71616492 -1000.08300781 355.82373047 C-1000.08207123 354.97373474 -1000.08113464 354.12373901 -1000.08016968 353.24798584 C-999.90116731 277.76894791 -979.14158576 203.62415878 -931.89550781 143.76123047 C-931.19425781 142.86791016 -930.49300781 141.97458984 -929.77050781 141.05419922 C-915.23717735 122.91348852 -898.52357367 104.70581954 -879.89550781 90.76123047 C-878.66574515 89.81539028 -877.43662934 88.86870874 -876.20800781 87.92138672 C-856.72180352 72.9959857 -835.97073884 60.30986423 -813.82714844 49.69238281 C-811.86789288 48.74791862 -809.92074264 47.7812333 -807.97363281 46.81201172 C-795.95330532 40.90302428 -783.52102302 36.206888 -770.89550781 31.76123047 C-769.84024902 31.38853027 -768.78499023 31.01583008 -767.69775391 30.63183594 C-723.88754398 15.37016396 -677.98774383 7.79937133 -631.89550781 3.76123047 C-631.21707825 3.70064453 -630.53864868 3.64005859 -629.83966064 3.57763672 C-587.35536254 -0.17408126 -543.37045913 -0.031919 -500.89550781 3.76123047 C-500.17453918 3.82439453 -499.45357056 3.88755859 -498.71075439 3.95263672 C-409.12790015 11.86277973 -315.95659829 35.69898072 -246.14941406 95.22998047 C-241.62762773 98.30197396 -237.66303723 97.77414818 -232.46191406 96.79248047 C-231.18880371 96.55489014 -229.91569336 96.3172998 -228.60400391 96.07250977 C-227.22182403 95.80301089 -225.83982974 95.53255874 -224.45800781 95.26123047 C-223.75121887 95.12496246 -223.04442993 94.98869446 -222.31622314 94.84829712 C-177.46790646 86.19575326 -133.62729332 73.46834665 -91.89550781 54.76123047 C-90.97334473 54.34905273 -90.05118164 53.936875 -89.10107422 53.51220703 C-61.27985893 40.95953364 -34.50227462 25.03092665 -10.51269531 6.10888672 C-9.69381836 5.47031738 -9.69381836 5.47031738 -8.85839844 4.81884766 C-7.36931411 3.65120773 -5.89361339 2.46655646 -4.41894531 1.28076172 C-1.89550781 -0.23876953 -1.89550781 -0.23876953 0 0 Z M-650.89550781 86.76123047 C-651.92546875 87.47537109 -652.95542969 88.18951172 -654.01660156 88.92529297 C-701.29899449 123.53345817 -717.54674076 180.3661132 -726.2615509 235.70942688 C-728.26314959 248.68340593 -729.80189017 261.6785977 -730.89550781 274.76123047 C-731.04197754 276.46327637 -731.04197754 276.46327637 -731.19140625 278.19970703 C-738.2587494 363.65031055 -737.75518699 457.92157125 -686.89550781 589.76123047 C-685.88617187 591.10121094 -685.88617187 591.10121094 -684.85644531 592.46826172 C-661.68874571 621.91230176 -630.12913727 638.06291632 -593.07176208 642.55105591 C-589.38013605 642.90757945 -585.69597371 642.96349443 -581.98925781 642.99951172 C-581.15507324 643.00926025 -580.32088867 643.01900879 -579.46142578 643.02905273 C-561.22651116 643.19830199 -543.71709428 643.07787771 -525.89550781 638.76123047 C-525.15155762 638.59526367 -524.40760742 638.42929687 -523.64111328 638.25830078 C-505.05816696 634.04083482 -486.49419376 625.01637359 -471.89550781 612.76123047 C-471.31510742 612.27428711 -470.73470703 611.78734375 -470.13671875 611.28564453 C-433.14513817 579.67828322 -416.9048243 531.08375494 -407.89550781 484.76123047 C-407.67266113 483.61654297 -407.44981445 482.47185547 -407.22021484 481.29248047 C-390.86984662 395.17974025 -390.77172733 298.74100112 -440.14550781 124.82373047 C-441.36945567 123.11724054 -442.61783565 121.42787683 -443.89550781 119.76123047 C-444.51554687 118.93494141 -445.13558594 118.10865234 -445.77441406 117.25732422 C-447.75456437 114.70113019 -449.80085954 112.22441649 -451.89550781 109.76123047 C-452.70632813 108.80345703 -453.51714844 107.84568359 -454.35253906 106.85888672 C-478.09975155 79.51307521 -512.39398499 65.85114406 -548.00488281 63.04248047 C-583.8110869 60.76629146 -620.85107547 65.90457937 -650.89550781 86.76123047 Z M-801.89550781 1054.76123047 C-803.8052228 1057.02979712 -805.47572838 1059.25936227 -807.14550781 1061.69873047 C-807.92680054 1062.82698242 -807.92680054 1062.82698242 -808.72387695 1063.97802734 C-848.04706233 1121.6759384 -876.09220712 1190.72815142 -876.14550781 1261.26123047 C-876.14618256 1262.0701474 -876.1468573 1262.87906433 -876.14755249 1263.7124939 C-876.06951979 1323.09684 -859.26986366 1379.92019787 -817.08300781 1422.88623047 C-811.33867562 1428.60064426 -805.12181148 1433.61721575 -798.63378906 1438.45849609 C-796.98814139 1439.69180733 -795.36299734 1440.95234009 -793.73925781 1442.21435547 C-725.61483805 1494.15359477 -626.21778903 1498.09517903 -543.89550781 1496.76123047 C-543.23091553 1496.7515625 -542.56632324 1496.74189453 -541.8815918 1496.73193359 C-469.61654397 1495.66908205 -393.75746787 1487.20355829 -327.89550781 1455.76123047 C-327.0758252 1455.37 -326.25614258 1454.97876953 -325.41162109 1454.57568359 C-292.61279302 1438.65636546 -261.78569518 1414.98935479 -239.89550781 1385.76123047 C-238.93837891 1384.49666016 -238.93837891 1384.49666016 -237.96191406 1383.20654297 C-221.32703131 1360.38640358 -210.90405821 1332.81498614 -207.89550781 1304.76123047 C-207.7859375 1303.85630859 -207.67636719 1302.95138672 -207.56347656 1302.01904297 C-204.53767371 1272.8906475 -208.71594416 1245.42588707 -222.89550781 1219.76123047 C-223.42789063 1218.78541016 -223.96027344 1217.80958984 -224.50878906 1216.80419922 C-235.29514359 1198.52360333 -252.92094786 1185.4050083 -270.89550781 1174.76123047 C-271.7958374 1174.2246582 -271.7958374 1174.2246582 -272.71435547 1173.67724609 C-299.50625265 1157.98112542 -330.54211116 1148.98725494 -360.58691406 1141.82763672 C-361.36573881 1141.6419557 -362.14456356 1141.45627468 -362.94698906 1141.26496696 C-389.70793721 1134.93751192 -416.77660321 1129.94729519 -443.76873893 1124.71784741 C-451.92400964 1123.13749087 -460.07748449 1121.54795583 -468.23085964 1119.95785344 C-481.72106551 1117.32703329 -495.21214499 1114.70073418 -508.70395863 1112.07817256 C-527.05835039 1108.51030464 -545.41000383 1104.92859865 -563.75979996 1101.33717442 C-565.8634091 1100.92545908 -567.96702724 1100.5137897 -570.07064819 1100.1021347 C-575.61106524 1099.01793002 -581.15147088 1097.93366706 -586.69184875 1096.84926224 C-601.58220917 1093.93484141 -616.47305131 1091.02288757 -631.36425781 1088.11279297 C-632.0271003 1087.98325131 -632.68994278 1087.85370966 -633.3728714 1087.7202425 C-653.0808334 1083.86873988 -672.79094629 1080.02838378 -692.5025354 1076.19548935 C-697.59776468 1075.20469465 -702.69289107 1074.21337239 -707.78794861 1073.22169495 C-708.49680291 1073.08373042 -709.20565721 1072.9457659 -709.93599194 1072.80362064 C-712.77132902 1072.25177046 -715.60666395 1071.69990931 -718.44198596 1071.14798176 C-726.63733091 1069.5526916 -734.83305231 1067.95937079 -743.02947605 1066.36963224 C-748.68213318 1065.27310184 -754.33415736 1064.17333749 -759.98596191 1063.07242203 C-762.28846367 1062.62449714 -764.59118147 1062.17768114 -766.89413452 1061.73208237 C-788.09368005 1057.62929967 -788.09368005 1057.62929967 -796.80027771 1055.25474548 C-799.02342824 1054.64659642 -799.02342824 1054.64659642 -801.89550781 1054.76123047 Z " fill="#000000" transform="translate(1046.8955078125,0.23876953125)"/>
<path d="M0 0 C2.09555123 1.74047171 4.04625061 3.4874794 6 5.375 C7.04110194 6.36257485 8.08279858 7.34952302 9.125 8.3359375 C9.67258783 8.87547341 10.22017567 9.41500933 10.78435707 9.97089481 C13.04418546 12.10748412 13.04418546 12.10748412 15.89855003 14.16990566 C21.97150104 18.85135478 25.91839493 22.91764537 27.11294556 30.79151917 C27.49693952 33.82292906 27.74594768 36.8547318 27.98291016 39.90063477 C28.15415821 41.58466347 28.33015845 43.26821457 28.51049805 44.95129395 C28.98392339 49.4960446 29.39088792 54.04453249 29.78558779 58.59670377 C30.21307302 63.39429597 30.70199221 68.18564001 31.18392944 72.97801208 C32.08881236 82.0695587 32.93828336 91.16539832 33.76803148 100.26407522 C34.70621721 110.52050901 35.70834924 120.77036694 36.7150681 131.02026284 C39.75235681 161.98855094 42.78188093 192.96036147 45 224 C45.56976562 222.90736847 46.13953125 221.81473694 46.7265625 220.68899536 C61.99558583 191.40780392 82.30474932 163.80502523 104 139 C104.63035156 138.27039063 105.26070312 137.54078125 105.91015625 136.7890625 C107.59428494 134.84790278 109.29289822 132.92097558 111 131 C111.63808594 130.28070313 112.27617188 129.56140625 112.93359375 128.8203125 C115.2745959 126.20010826 117.63452821 123.59814114 120 121 C120.4935498 120.45456543 120.98709961 119.90913086 121.49560547 119.34716797 C130.28586949 109.65768552 139.51736014 100.56270377 149.14501953 91.70654297 C150.705745 90.2707084 152.25815307 88.82584046 153.80859375 87.37890625 C159.95224912 81.71947988 166.46062204 76.58075975 173.07421875 71.48876953 C175.03752028 69.97099409 176.98796363 68.43774727 178.9375 66.90234375 C193.88873766 55.20339854 209.66110949 44.56445007 226.11474609 35.08740234 C227.41792583 34.33573664 228.71752204 33.57783612 230.01416016 32.81494141 C284.57314433 0.76994605 348.77581298 -9.74333725 410.36767578 5.60498047 C418.56148753 7.76234843 426.34770481 10.31976896 434 14 C435.10867432 14.5256958 435.10867432 14.5256958 436.23974609 15.06201172 C469.65862692 31.13493444 493.67635892 59.06026971 506 94 C521.0203941 137.72491981 519.08521426 190.21224187 499.08984375 232.09375 C484.01482768 262.25888737 456.78329657 283.83801208 425.13671875 294.73046875 C420.14098072 296.35568873 415.09962911 297.7414246 410 299 C409.27748047 299.17934082 408.55496094 299.35868164 407.81054688 299.54345703 C365.49199453 309.41713224 318.7773877 298.78923896 282 277 C271.28714043 270.23602457 261.47781364 262.3798512 252 254 C251.08347656 253.2059375 250.16695312 252.411875 249.22265625 251.59375 C244.74810444 247.66421878 240.62057792 243.64623693 236.77734375 239.09765625 C234.73362414 236.68561794 232.62177583 234.34361411 230.5 232 C227.85423713 229.07409753 225.24685127 226.12647765 222.6875 223.125 C209.15194102 207.75358359 193.92053755 194.97172765 172.70410156 192.76074219 C156.29949283 191.81310754 144.90031962 195.59445293 132 206 C131.41605469 206.4434375 130.83210938 206.886875 130.23046875 207.34375 C126.63551973 210.15141467 123.78345003 213.45081312 120.84375 216.90625 C119.01897913 218.97844743 117.10811254 220.89234341 115.125 222.8125 C110.8611067 227.03570729 107.08969031 231.56660029 103.36914062 236.27148438 C102.38770327 237.51053154 101.4014622 238.74577958 100.41210938 239.97851562 C84.06550279 260.3603988 71.09545733 282.09269181 59.75 305.625 C59.38640381 306.37362305 59.02280762 307.12224609 58.64819336 307.89355469 C57.89597568 309.48703554 57.16776717 311.09201528 56.46074331 312.70605677 C55.68109296 314.46415073 54.89423531 316.21964505 54.05985351 317.95243356 C47.21520854 332.22435911 45.86130879 344.51194775 46.02450562 360.19584656 C46.01957415 362.58101115 46.01113058 364.96617057 45.99951613 367.35131198 C45.98016065 373.17414273 45.99752481 378.99602328 46.03106171 384.81877016 C46.0691564 391.80457951 46.06010398 398.79013924 46.04977115 405.77601671 C46.03203347 418.66848327 46.05154157 431.56063769 46.09302902 444.45303917 C46.13403625 457.21691797 46.15914547 469.98066164 46.16310501 482.74460793 C46.16336468 483.5406881 46.16362435 484.33676828 46.16389188 485.1569721 C46.16489187 488.38898328 46.16577178 491.62099447 46.16649606 494.85300572 C46.17309211 524.26741034 46.21769898 553.68162754 46.28662109 583.09594727 C46.35157187 610.82902741 46.39409057 638.56201301 46.40966797 666.29516602 C46.41015405 667.14979368 46.41064013 668.00442134 46.41114095 668.88494681 C46.41358525 673.18983969 46.41599189 677.49473259 46.41838453 681.7996255 C46.41885707 682.64922517 46.41932961 683.49882484 46.41981647 684.37416995 C46.42076483 686.08746304 46.42170515 687.80075614 46.42263739 689.51404924 C46.43760273 716.83095115 46.46914667 744.14783581 46.50503575 771.46471744 C46.51550815 779.45042689 46.52539659 787.4361361 46.53375959 795.42184806 C46.5515507 812.20816338 46.57496196 828.99443551 46.61689167 845.78071006 C46.63410095 852.71949584 46.64847745 859.65825326 46.65392303 866.59705925 C46.65928812 872.95586283 46.67395376 879.31457641 46.69590397 885.67334376 C46.70227307 887.96643142 46.7053853 890.25953109 46.70480339 892.55262753 C46.70227216 923.80359896 49.85283171 957.79159481 72.5078125 981.62890625 C83.91937281 992.48598636 97.25065414 999.29716849 112.08984375 1004.15625 C113.42249771 1004.59633896 113.42249771 1004.59633896 114.78207397 1005.0453186 C127.47393191 1009.18995716 140.28457297 1012.95967204 153.08081055 1016.76647949 C157.2073394 1017.9948771 161.33252094 1019.22779083 165.45785332 1020.46019936 C168.65514614 1021.41530744 171.85270635 1022.36948278 175.05081177 1023.3218689 C176.75066727 1023.82842514 176.75066727 1023.82842514 178.48486328 1024.34521484 C179.4807547 1024.64164886 180.47664612 1024.93808289 181.50271606 1025.24349976 C183.34379082 1025.80121507 185.17502264 1026.39167421 187 1027 C187 1040.86 187 1054.72 187 1069 C8.47 1069 -170.06 1069 -354 1069 C-354 1055.14 -354 1041.28 -354 1027 C-348.658125 1025.164375 -343.31625 1023.32875 -337.8125 1021.4375 C-336.07057373 1020.83776367 -334.32864746 1020.23802734 -332.53393555 1019.62011719 C-324.93972771 1017.0089086 -317.33771756 1014.44472356 -309.68530273 1012.00805664 C-297.11762268 1007.98021525 -286.03374024 1002.78909689 -276 994 C-275.32453125 993.41863281 -274.6490625 992.83726562 -273.953125 992.23828125 C-254.3955439 974.15888942 -248.70279342 945.37185508 -247 920 C-246.87323664 916.16906054 -246.86177092 912.34282894 -246.86857224 908.51002407 C-246.86549328 906.86535443 -246.86549328 906.86535443 -246.86235213 905.18745914 C-246.85671759 901.52961925 -246.85813498 897.87181744 -246.85955811 894.213974 C-246.85697242 891.5582376 -246.85399715 888.90250418 -246.8505547 886.24676901 C-246.84300573 879.72363468 -246.84078323 873.20050855 -246.84022565 866.6773703 C-246.83930891 858.85899178 -246.83263212 851.04062076 -246.82587883 843.22224548 C-246.80984697 824.32745155 -246.80391839 805.43265846 -246.79913008 786.53785895 C-246.79679094 777.59071242 -246.7931879 768.64356652 -246.7894347 759.69642048 C-246.77660063 729.04079087 -246.76588216 698.38516162 -246.7624321 667.72952938 C-246.76221047 665.8064352 -246.76198869 663.88334102 -246.76176675 661.96024683 C-246.76154611 660.03262886 -246.76132563 658.10501088 -246.7611053 656.1773929 C-246.76066276 652.31056337 -246.76021564 648.44373383 -246.75976562 644.5769043 C-246.75965623 643.61816105 -246.75954684 642.6594178 -246.75943414 641.67162172 C-246.75580628 610.6083627 -246.73989575 579.54512705 -246.71657526 548.48187697 C-246.69193766 515.60379482 -246.6782574 482.72572602 -246.67706418 449.84763438 C-246.67689274 446.23308948 -246.67667732 442.6185446 -246.67642975 439.00399971 C-246.67637398 438.11406293 -246.67631821 437.22412614 -246.67626075 436.30722157 C-246.67511362 422.03096577 -246.66412036 407.7547341 -246.64954269 393.47848643 C-246.63512265 379.10721371 -246.6319716 364.73597167 -246.63998267 350.36469369 C-246.64441335 341.84528301 -246.64068202 333.32597189 -246.62474416 324.80657445 C-246.61490142 319.0937397 -246.61625966 313.38097371 -246.62618039 307.6681394 C-246.63150656 304.42752107 -246.63078075 301.18712633 -246.61967167 297.94651746 C-246.50792832 263.1096729 -248.04746351 222.2317974 -273.1875 195.25 C-288.78937756 180.50155848 -309.63726543 175.75368022 -329.8125 170.6875 C-332.9729619 169.88469408 -336.13267987 169.07905451 -339.29191589 168.2714386 C-341.24198989 167.77388947 -343.19290247 167.27961288 -345.14472961 166.78898621 C-346.45331184 166.45777519 -346.45331184 166.45777519 -347.78833008 166.11987305 C-348.93958122 165.83058174 -348.93958122 165.83058174 -350.11408997 165.53544617 C-352 165 -352 165 -354 164 C-354 150.8 -354 137.6 -354 124 C-335.09718949 117.03431997 -316.16491585 110.17944967 -297.16421509 103.48580933 C-290.07263152 100.98751267 -282.98369217 98.48172338 -275.89453125 95.9765625 C-275.17784712 95.72335928 -274.46116299 95.47015606 -273.72276115 95.20928001 C-259.40764285 90.15133154 -245.10763353 85.05167125 -230.8125 79.9375 C-210.98907221 72.84690191 -191.15509324 65.78673672 -171.3125 58.75 C-169.9841605 58.27890263 -168.65582187 57.80780278 -167.32748413 57.33670044 C-162.14936963 55.50028328 -156.97121829 53.66397001 -151.79301453 51.82780457 C-124.88222119 42.28500054 -97.98149731 32.71402385 -71.09039307 23.11587524 C-67.48231482 21.82849021 -63.87374335 20.54249488 -60.26513672 19.2565918 C-49.68728729 15.48405446 -39.11816342 11.69238377 -28.58203125 7.8046875 C-26.88162858 7.17983153 -25.18119053 6.55507185 -23.48071289 5.93041992 C-20.41668571 4.80451711 -17.35824033 3.66499405 -14.30249023 2.5168457 C-12.96747561 2.02503608 -11.63228291 1.53370948 -10.296875 1.04296875 C-9.16604492 0.62039795 -8.03521484 0.19782715 -6.87011719 -0.23754883 C-3.95945849 -1.01076992 -2.7242197 -1.18260989 0 0 Z " fill="#000000" transform="translate(1470,3)"/>
<path d="M0 0 C37.40760159 33.74040178 61.22910969 82.20961982 64.68847656 132.52294922 C66.97396804 182.35991272 54.66161096 230.71242903 23.68847656 270.52294922 C23.25245117 271.08594727 22.81642578 271.64894531 22.3671875 272.22900391 C-8.72333712 311.80954211 -53.67934085 338.25467368 -103.31152344 346.52294922 C-105.24125 346.85939453 -105.24125 346.85939453 -107.20996094 347.20263672 C-160.15965575 354.91786171 -213.75433908 340.22919619 -256.49902344 308.64794922 C-263.36428356 303.46688839 -269.74027619 297.8531439 -275.91552734 291.87207031 C-277.17441289 290.65545585 -278.45094099 289.45716124 -279.72949219 288.26123047 C-301.51945724 267.39685685 -316.56848503 239.76668896 -326.31152344 211.52294922 C-326.69050781 210.42515137 -326.69050781 210.42515137 -327.07714844 209.30517578 C-343.3597743 160.97743764 -338.73441363 105.18338269 -316.33789062 59.53613281 C-302.81808329 33.01750024 -283.84845222 8.8395079 -260.31152344 -9.47705078 C-259.77849609 -9.89712402 -259.24546875 -10.31719727 -258.69628906 -10.75 C-187.03338652 -66.86929389 -82.39920023 -66.19492945 0 0 Z " fill="#9C6644" transform="translate(4224.3115234375,724.47705078125)"/>
</svg>
